<svg width="30" height="32" viewBox="0 0 30 32" fill="none" xmlns="http://www.w3.org/2000/svg">
<path d="M28.3524 0H1.65521C1.21622 0 0.795211 0.185934 0.484799 0.5169C0.174387 0.847865 0 1.29675 0 1.76481V30.2325C0 30.7005 0.174387 31.1494 0.484799 31.4804C0.795211 31.8114 1.21622 31.9973 1.65521 31.9973H16.0224V19.6083H12.1161V14.7782H16.0224V11.216C16.0224 7.08366 18.3906 4.83285 21.8487 4.83285C23.0157 4.82842 24.182 4.89186 25.3425 5.02291V9.34261H22.9514C21.0695 9.34261 20.7054 10.2956 20.7054 11.6939V14.7782H25.1897L24.6066 19.6083H20.7054V32H28.3448C28.7836 31.9993 29.2042 31.8131 29.5145 31.4823C29.8247 31.1515 29.9993 30.703 30 30.2352V1.76752C30.0007 1.3004 29.8276 0.852051 29.5188 0.520732C29.21 0.189413 28.7905 0.00215537 28.3524 0Z" fill="white"/>
</svg>
