<svg width="30" height="32" viewBox="0 0 30 32" fill="none" xmlns="http://www.w3.org/2000/svg">
<path d="M2.01195 0C0.900781 0 0 0.900782 0 2.01195V29.988C0 31.0992 0.900782 32 2.01195 32H27.988C29.0992 32 30 31.0992 30 29.988V2.01195C30 0.900781 29.0992 0 27.988 0H2.01195ZM7.35717 6.29101C8.54542 6.30528 9.71593 7.17968 9.76685 8.69336C9.79225 10.0394 8.69257 11.0646 7.32605 11.0957H7.2931C6.11667 11.0812 4.9678 10.1849 4.91455 8.69336C4.93132 7.36235 5.98022 6.32259 7.35717 6.29101ZM20.105 12.6504C21.4114 12.659 22.6443 13.0724 23.6572 14.1739C24.7099 15.4261 25.0478 17.1528 25.0855 18.9082V24.8806C25.0855 25.9918 24.1847 26.8926 23.0735 26.8926H22.7834C21.6723 26.8926 20.7715 25.9918 20.7715 24.8806V19.4512C20.7619 18.0565 20.314 16.3611 18.5834 16.3047C17.5691 16.3162 16.8539 16.9449 16.3641 17.9961C16.2304 18.3345 16.2112 18.7234 16.2048 19.1113V24.8806C16.2048 25.9918 15.304 26.8926 14.1929 26.8926H13.9132C12.7987 26.8926 11.8966 25.9866 11.9016 24.8721C11.9161 21.6556 11.9305 18.4393 11.9238 15.2227C11.9238 15.1867 11.9238 15.151 11.9238 15.1158C11.9231 13.9611 12.864 12.9902 14.0187 12.9902H15.7524C16.0023 12.9902 16.2048 13.1928 16.2048 13.4427C16.2048 13.8916 16.8226 14.0879 17.1442 13.7747C17.2625 13.6595 17.3878 13.5493 17.5213 13.4453C18.26 12.883 19.1472 12.6675 20.105 12.6504ZM5.16908 15.0022C5.16908 13.891 6.06986 12.9902 7.18103 12.9902H7.46925C8.58042 12.9902 9.4812 13.891 9.4812 15.0022V24.8806C9.4812 25.9918 8.58042 26.8926 7.46925 26.8926H7.18103C6.06986 26.8926 5.16908 25.9918 5.16908 24.8806V15.0022Z" fill="white"/>
</svg>
