<svg width="30" height="32" viewBox="0 0 30 32" fill="none" xmlns="http://www.w3.org/2000/svg">
<path d="M15 0C13.0302 0 11.0796 0.424127 9.25975 1.24817C7.43986 2.0722 5.78628 3.28001 4.3934 4.80264C1.58035 7.87772 0 12.0484 0 16.3972C0 23.6448 4.305 29.7938 10.26 31.9746C11.01 32.1058 11.25 31.5975 11.25 31.1547V28.3836C7.095 29.3674 6.21 26.1864 6.21 26.1864C5.52 24.2843 4.545 23.776 4.545 23.776C3.18 22.7594 4.65 22.7922 4.65 22.7922C6.15 22.9069 6.945 24.4811 6.945 24.4811C8.25 26.9734 10.455 26.2356 11.31 25.842C11.445 24.7762 11.835 24.0547 12.255 23.6448C8.925 23.2349 5.43 21.8247 5.43 15.5774C5.43 13.7573 6 12.2979 6.975 11.1337C6.825 10.7238 6.3 9.01848 7.125 6.80485C7.125 6.80485 8.385 6.36213 11.25 8.47737C12.435 8.11663 13.725 7.93626 15 7.93626C16.275 7.93626 17.565 8.11663 18.75 8.47737C21.615 6.36213 22.875 6.80485 22.875 6.80485C23.7 9.01848 23.175 10.7238 23.025 11.1337C24 12.2979 24.57 13.7573 24.57 15.5774C24.57 21.8411 21.06 23.2185 17.715 23.6284C18.255 24.1367 18.75 25.137 18.75 26.6619V31.1547C18.75 31.5975 18.99 32.1222 19.755 31.9746C25.71 29.7774 30 23.6448 30 16.3972C30 14.2439 29.612 12.1117 28.8582 10.1223C28.1044 8.13288 26.9995 6.32526 25.6066 4.80264C24.2137 3.28001 22.5601 2.0722 20.7403 1.24817C18.9204 0.424127 16.9698 0 15 0Z" fill="white"/>
</svg>
