<svg width="30" height="32" viewBox="0 0 30 32" fill="none" xmlns="http://www.w3.org/2000/svg">
<path d="M4.28571 0C1.92188 0 0 2.05 0 4.57143V27.4286C0 29.95 1.92188 32 4.28571 32H25.7143C28.0781 32 30 29.95 30 27.4286V4.57143C30 2.05 28.0781 0 25.7143 0H4.28571ZM24.1808 6L17.2299 14.4714L25.4062 26H19.0045L13.9955 19.0071L8.2567 26H5.07589L12.5089 16.9357L4.66741 6H11.2299L15.7634 12.3929L21 6H24.1808ZM21.6496 23.9714L10.2723 7.92143H8.37723L19.8817 23.9714H21.6429H21.6496Z" fill="white"/>
</svg>
